<svg width="102" height="76" viewBox="0 0 102 76" fill="none" xmlns="http://www.w3.org/2000/svg">
<path d="M41.7913 43.7809V46.8166H44.599V43.1734C43.6857 43.4308 42.7451 43.6318 41.7913 43.7809ZM32.6539 16.8841C34.9602 16.7693 36.8546 18.6307 36.7377 20.8968C36.6378 22.8369 35.0328 24.414 33.0583 24.5121C30.752 24.627 28.8576 22.7656 28.9745 20.4995C29.0744 18.5594 30.6794 16.9823 32.6539 16.8841ZM56.3971 39.5247L58.7297 34.6387L54.6921 33.9294C54.447 34.8406 54.1153 35.6815 53.7063 36.4557C54.7241 37.4623 55.6167 38.4875 56.3971 39.5247ZM61.1048 43.6022L69.2705 45.0357L73.0348 37.1512L64.8691 35.7176L61.1048 43.6022ZM66.6108 50.6051L60.7787 49.5809C61.8079 55.6846 60.2669 61.5679 58.3508 66.077C58.7316 65.8881 59.1142 65.6964 59.4988 65.5028L66.6117 50.606L66.6108 50.6051ZM79.5964 52.8851L72.7511 51.6831L68.5269 60.5307C72.3543 58.2276 76.1261 55.6754 79.5964 52.8851ZM85.1683 47.8278L85.2334 47.8399C87.5717 45.4839 89.6423 42.9882 91.3228 40.3628L79.1741 38.2291L75.4098 46.1137L85.1683 47.8269V47.8278ZM88.0052 19.7327L95.449 21.0394C95.3397 20.4958 95.2115 19.9475 95.0626 19.3975C94.3425 16.7285 93.1144 14.3606 91.499 12.4149L88.0052 19.7327ZM73.7002 17.2212L81.8659 18.6547L86.7169 8.4939C84.9224 7.53634 82.929 6.92606 80.8056 6.73436C80.1289 6.67324 79.4371 6.6538 78.733 6.67973L73.7002 17.2212ZM62.1255 15.1885L67.5608 16.1432L71.1705 8.5828C70.4882 8.89859 69.802 9.25605 69.1131 9.65612C66.7899 11.0045 64.444 12.8298 62.1264 15.1885H62.1255ZM64.9011 21.7117L57.6798 20.4439C56.5884 21.9275 55.5111 23.5435 54.4536 25.2984C54.6959 26.218 54.8721 27.0996 54.9862 27.9451L61.3875 29.0693L64.9002 21.7117H64.9011ZM79.2062 24.2241L71.0405 22.7906L67.5278 30.1482L75.6935 31.5818L79.2062 24.2241ZM95.8891 27.1533L85.3465 25.3021L81.8338 32.6597L94.1738 34.8267C95.137 32.3652 95.7365 29.8056 95.8891 27.1533ZM27.2714 7.18443C26.0622 6.89087 24.8492 7.67247 24.6287 8.87636C24.0208 12.1963 22.4553 17.2545 18.4299 21.921C17.3536 23.1712 15.4498 23.3268 14.1774 22.2692C12.9051 21.2116 12.7467 19.341 13.823 18.0908C15.6449 15.9784 16.8249 13.7957 17.5883 11.8416C18.3573 9.87374 16.0907 8.12254 14.3207 9.31347C13.6581 9.75984 13.0285 10.2562 12.4366 10.8007C10.0588 12.9853 8.27274 15.9386 7.33968 19.3975C4.12203 31.3243 10.2416 41.6741 19.5194 50.0837C28.5324 58.2526 40.4775 64.6175 50.1229 68.9367C53.0701 64.2554 59.2311 51.9951 50.6469 41.9426V48.4085C50.6469 49.5948 50.1502 50.6792 49.3482 51.4719L49.3293 51.4904C48.5226 52.2739 47.4227 52.7592 46.2182 52.7592H40.1703C38.9573 52.7592 37.8536 52.2702 37.0525 51.483L37.0412 51.471C36.2401 50.6838 35.7425 49.5994 35.7425 48.4075V44.0708C31.5833 43.8568 27.6267 42.8456 25.1253 41.4592C23.6767 40.6582 23.164 38.8551 23.9793 37.4318C24.7945 36.0084 26.6296 35.5046 28.0782 36.3057C30.3411 37.5596 34.4871 38.3745 38.6529 38.1504C40.7669 38.0365 42.8356 37.6457 44.5792 36.8937C41.5981 33.2996 42.5519 27.7432 48.369 26.0077C43.5943 17.8685 38.3861 12.614 33.2892 9.65519C31.2449 8.46797 29.2252 7.65766 27.2704 7.18351L27.2714 7.18443ZM49.9966 75.3719C39.5576 70.8666 25.7625 63.81 15.4328 54.4474C4.64322 44.669 -2.41506 32.4189 1.50474 17.8889C2.72997 13.3474 5.12106 9.4283 8.32646 6.4834C11.7826 3.30698 16.1689 1.28073 21.0529 0.838072C25.8586 0.401892 31.1064 1.49929 36.3607 4.54976C40.3795 6.88253 44.4171 10.3738 48.2662 15.219C49.7563 17.0952 52.6403 17.1008 54.1285 15.2237C57.4583 11.0239 61.3988 7.24463 66.0406 4.54976C71.2959 1.49929 76.5436 0.402818 81.3494 0.838072C91.0674 1.71969 98.4376 8.76894 100.898 17.8889C104.817 32.4189 97.759 44.6681 86.9694 54.4474C76.6398 63.81 62.8446 70.8666 52.4056 75.3719C51.6054 75.7146 50.7374 75.6887 49.9957 75.3719H49.9966Z" fill="#F2D8AC"/>
</svg>
