<svg width="842" height="199" viewBox="0 0 842 199" fill="none" xmlns="http://www.w3.org/2000/svg">
<path d="M48.0158 159.759H0V32.3975H51.894C72.2083 32.3975 87.1055 35.2359 96.5856 40.9129C106.066 46.4664 110.806 54.1797 110.806 64.0526C110.806 76.8875 104.096 85.7114 90.6759 90.5245C107.912 93.8566 116.531 104.038 116.531 121.069C116.531 134.151 110.559 143.9 98.617 150.318C86.7977 156.612 69.9307 159.759 48.0158 159.759ZM41.1828 82.7495H55.7722C60.6969 82.7495 64.6982 81.6388 67.7761 79.4174C70.854 77.196 72.393 74.2341 72.393 70.5318C72.393 62.0163 66.6065 57.7586 55.0335 57.7586H41.1828V82.7495ZM56.8802 133.657C63.0361 133.657 67.7761 132.423 71.1003 129.955C74.4244 127.486 76.0865 124.031 76.0865 119.588C76.0865 114.775 74.4244 111.073 71.1003 108.481C67.7761 105.766 63.0361 104.408 56.8802 104.408H40.9981V133.657H56.8802Z" fill="#4E2D2A"/>
<path d="M131.293 159.759V32.3975H220.492V60.5354H176.169V83.1198H216.613V106.445H176.169V130.695H220.492V159.759H131.293Z" fill="#4E2D2A"/>
<path d="M227.739 159.759L262.827 32.3975H322.662L359.413 159.759H314.167L309.366 135.323H276.493L271.138 159.759H227.739ZM280.371 112.553H304.933L292.929 56.833L280.371 112.553Z" fill="#4E2D2A"/>
<path d="M622.56 159.759V32.3975H711.759V60.5354H667.436V83.1198H707.881V106.445H667.436V130.695H711.759V159.759H622.56Z" fill="#4E2D2A"/>
<path d="M824.64 162.72C815.776 162.72 808.451 161.425 802.664 158.833C796.878 156.118 792.261 152.416 788.813 147.726C785.366 143.036 782.781 137.544 781.057 131.25C779.333 124.956 778.164 118.169 777.548 110.887H768.868V159.759H728.424V32.3975H780.688C800.879 32.3975 815.407 35.9764 824.271 43.1343C833.259 50.1688 837.753 59.7332 837.753 71.8276C837.753 79.1089 835.783 85.6497 831.843 91.4501C827.903 97.127 821.562 101.878 812.821 105.704C813.314 108.419 813.745 110.641 814.114 112.368C814.483 114.096 815.037 116.009 815.776 118.107C817.377 122.55 819.346 125.635 821.686 127.363C824.148 129.091 827.472 129.955 831.658 129.955C834.367 129.955 837.075 129.584 839.784 128.844L842 159.203C839.538 160.191 836.891 160.993 834.059 161.61C831.35 162.35 828.211 162.72 824.64 162.72ZM768.868 85.5263H775.886C784.997 85.5263 791.399 84.539 795.092 82.5644C798.909 80.4664 800.817 76.9492 800.817 72.0127C800.817 67.8167 799.278 64.7931 796.2 62.9419C793.122 60.9673 788.259 59.98 781.611 59.98H768.868V85.5263Z" fill="#4E2D2A"/>
<path fill-rule="evenodd" clip-rule="evenodd" d="M434.067 63.182C428.603 63.182 424.175 58.6383 424.175 53.0314C424.175 47.4245 428.603 42.8808 434.067 42.8808C439.532 42.8808 443.96 47.4245 443.96 53.0314C443.96 58.6383 439.532 63.182 434.067 63.182ZM400.122 131.132C423.062 152.844 453.464 169.76 478.013 181.24C485.514 168.798 501.195 136.212 479.347 109.495V126.68C479.347 129.833 478.083 132.715 476.041 134.822L475.993 134.871C473.94 136.953 471.141 138.243 468.075 138.243H452.682C449.595 138.243 446.786 136.943 444.747 134.851L444.718 134.819C442.679 132.727 441.412 129.845 441.412 126.677V115.151C430.826 114.582 420.756 111.894 414.39 108.21C410.703 106.081 409.398 101.288 411.473 97.5053C413.548 93.7223 418.218 92.3833 421.905 94.5123C427.665 97.845 438.217 100.011 448.82 99.4153C454.2 99.1126 459.466 98.0739 463.903 96.0753C456.316 86.5228 458.744 71.7548 473.549 67.1423C461.397 45.5095 448.141 31.5439 435.168 23.6799C424.724 17.3494 414.541 15.048 405.406 15.9144C396.469 16.7611 388.433 20.6402 382.095 26.7221C376.043 32.5284 371.497 40.3777 369.122 49.5708C360.933 81.2703 376.508 108.781 400.122 131.132Z" fill="#F58D47"/>
<path fill-rule="evenodd" clip-rule="evenodd" d="M444.396 30.3009C441.316 27.7411 438.234 25.5382 435.168 23.6799C426.873 18.6514 418.749 16.1679 411.178 15.7913C409.038 20.8543 406.623 29.3582 406.426 42.2064C406.426 42.2064 416.901 11.6834 444.396 30.3009Z" fill="#C76034"/>
<path fill-rule="evenodd" clip-rule="evenodd" d="M402.322 16.3353C394.622 17.6964 387.696 21.349 382.095 26.7221C376.043 32.5284 371.497 40.3777 369.122 49.5708C369.022 49.9646 368.926 50.3584 368.832 50.7497C375.196 31.6867 387.891 24.5562 390.121 27.0249C392.355 29.4936 385.624 46.1027 385.624 46.1027C393.01 47.3777 400.314 26.2225 402.322 16.3353Z" fill="#F2D8AC"/>
<path fill-rule="evenodd" clip-rule="evenodd" d="M415.964 144.574C435.972 159.925 458.787 172.249 478.013 181.24C485.514 168.798 501.195 136.212 479.347 109.495V126.68C479.347 129.833 478.083 132.715 476.041 134.822L475.993 134.871C473.94 136.953 471.141 138.243 468.075 138.243H452.682C449.595 138.243 446.786 136.943 444.747 134.851L444.718 134.819C442.679 132.727 441.412 129.845 441.412 126.677V115.151C433.029 114.7 424.969 112.921 418.813 110.368C442.537 122.431 445.881 159.337 415.961 144.569" fill="#C76034"/>
<path fill-rule="evenodd" clip-rule="evenodd" d="M421.908 94.5173C427.667 97.8499 438.22 100.016 448.822 99.4202C454.203 99.1175 459.468 98.0788 463.906 96.0802C456.318 86.5277 458.746 71.7597 473.551 67.1472C467.566 56.4945 461.315 47.7026 454.963 40.5819C466.125 61.3236 456.51 98.4283 421.908 94.5173Z" fill="#F2D8AC"/>
<path fill-rule="evenodd" clip-rule="evenodd" d="M505.134 129.796C507.753 146.018 503.831 161.655 498.955 173.639C499.924 173.137 500.898 172.628 501.876 172.113L519.98 132.52L505.134 129.796Z" fill="#A8461C"/>
<path fill-rule="evenodd" clip-rule="evenodd" d="M535.603 135.383L524.852 158.898C534.593 152.777 544.193 145.994 553.026 138.578L535.603 135.383Z" fill="#A8461C"/>
<path fill-rule="evenodd" clip-rule="evenodd" d="M542.373 120.58L567.21 125.134L567.375 125.166C573.327 118.904 578.597 112.271 582.874 105.293L551.953 99.6221L542.373 120.58Z" fill="#A8461C"/>
<path fill-rule="evenodd" clip-rule="evenodd" d="M526.747 117.715L536.328 96.7595L515.545 92.9469L505.964 113.905L526.747 117.715Z" fill="#A8461C"/>
<path fill-rule="evenodd" clip-rule="evenodd" d="M493.982 103.068L499.919 90.0819L489.642 88.1965C489.019 90.6185 488.174 92.8534 487.133 94.9111C489.724 97.5865 491.996 100.311 493.982 103.068Z" fill="#A8461C"/>
<path fill-rule="evenodd" clip-rule="evenodd" d="M490.393 72.2914L506.686 75.2794L515.626 55.7241L497.247 52.3545C494.469 56.2976 491.727 60.5926 489.036 65.2569C489.652 67.701 490.103 70.0442 490.393 72.2914Z" fill="#A8461C"/>
<path fill-rule="evenodd" clip-rule="evenodd" d="M531.254 58.5916L522.312 78.1444L543.095 81.9571L552.035 62.4017L531.254 58.5916Z" fill="#A8461C"/>
<path fill-rule="evenodd" clip-rule="evenodd" d="M567.663 65.2667L558.723 84.822L590.13 90.5816C592.582 84.0393 594.107 77.2362 594.496 70.1869L567.663 65.2667Z" fill="#A8461C"/>
<path fill-rule="evenodd" clip-rule="evenodd" d="M574.43 50.4642L593.376 53.9372C593.097 52.4924 592.771 51.0352 592.392 49.5732C590.56 42.4796 587.434 36.186 583.322 31.0147L574.43 50.4642Z" fill="#A8461C"/>
<path fill-rule="evenodd" clip-rule="evenodd" d="M558.804 47.5992L571.151 20.5934C566.584 18.0484 561.51 16.4264 556.106 15.9169C554.383 15.7544 552.623 15.7027 550.831 15.7716L538.021 43.7891L558.804 47.5992Z" fill="#A8461C"/>
<path fill-rule="evenodd" clip-rule="evenodd" d="M568.913 25.4915L571.151 20.5934C566.584 18.0484 561.51 16.4264 556.106 15.9169C554.383 15.7544 552.623 15.7027 550.831 15.7716L548.751 20.3227C555.768 20.3227 562.587 22.0161 568.913 25.4915Z" fill="#C97F5F"/>
<path fill-rule="evenodd" clip-rule="evenodd" d="M522.396 40.9216L531.583 20.8272C529.846 21.6665 528.1 22.6166 526.346 23.6799C520.433 27.2636 514.463 32.1149 508.564 38.384L522.396 40.9216Z" fill="#A8461C"/>
<path fill-rule="evenodd" clip-rule="evenodd" d="M456.808 114.38V122.449H463.954V112.766C461.629 113.45 459.235 113.984 456.808 114.38Z" fill="white"/>
<path fill-rule="evenodd" clip-rule="evenodd" d="M456.808 114.38V122.449H459.979C459.979 122.449 459.636 117.959 459.979 116.285C460.322 114.612 463.954 112.766 463.954 112.766C461.629 113.45 459.235 113.984 456.808 114.38Z" fill="#C5C8D9"/>
<path fill-rule="evenodd" clip-rule="evenodd" d="M581.334 35.3664C585.877 40.3038 589.945 46.4842 593.376 53.9372C593.097 52.4924 592.771 51.0352 592.392 49.5732C590.56 42.4796 587.434 36.186 583.322 31.0147L581.334 35.3664Z" fill="#C97F5F"/>
<path fill-rule="evenodd" clip-rule="evenodd" d="M508.564 38.384C515.453 31.9722 522.715 27.2267 530.038 24.2091L531.583 20.8272C529.846 21.6665 528.1 22.6166 526.346 23.6799C520.433 27.2636 514.463 32.1149 508.564 38.384Z" fill="#C97F5F"/>
<path fill-rule="evenodd" clip-rule="evenodd" d="M594.496 70.1869C591.126 77.7777 587.424 84.1156 583.483 89.3607L590.13 90.5816C592.582 84.0393 594.107 77.2362 594.496 70.1869Z" fill="#8C3915"/>
<path fill-rule="evenodd" clip-rule="evenodd" d="M582.874 105.293L569.81 102.901C562.278 108.207 554.347 110.787 546.52 111.51L542.373 120.58L567.21 125.134L567.375 125.166C573.327 118.904 578.597 112.271 582.874 105.293Z" fill="#8C3915"/>
<path fill-rule="evenodd" clip-rule="evenodd" d="M553.026 138.578L535.603 135.383L524.852 158.898C534.593 152.777 544.193 145.994 553.026 138.578Z" fill="#8C3915"/>
<path fill-rule="evenodd" clip-rule="evenodd" d="M501.876 172.113L519.98 132.52L505.134 129.796C507.753 146.018 503.831 161.655 498.955 173.639C499.924 173.137 500.898 172.628 501.876 172.113Z" fill="#8C3915"/>
<path fill-rule="evenodd" clip-rule="evenodd" d="M505.964 113.905L526.747 117.715L530.038 110.518C523.019 109.106 516.411 106.585 510.634 103.691L505.964 113.905Z" fill="#8C3915"/>
<path fill-rule="evenodd" clip-rule="evenodd" d="M493.982 103.068L497.422 95.5436C493.473 92.5654 490.739 89.8727 489.642 88.1965C489.019 90.6185 488.174 92.8534 487.133 94.9111C489.724 97.5865 491.996 100.311 493.982 103.068Z" fill="#8C3915"/>
<path d="M456.808 114.38V122.449H463.954V112.766C461.629 113.45 459.235 113.984 456.808 114.38ZM433.552 42.8918C439.422 42.5866 444.244 47.5339 443.946 53.5568C443.692 58.7133 439.607 62.9049 434.581 63.1658C428.711 63.471 423.89 58.5238 424.187 52.5009C424.442 47.3444 428.527 43.1527 433.552 42.8918ZM493.982 103.068L499.919 90.0819L489.642 88.1965C489.019 90.6185 488.174 92.8534 487.133 94.9111C489.724 97.5865 491.996 100.311 493.982 103.068ZM505.964 113.905L526.747 117.715L536.328 96.7595L515.545 92.9469L505.964 113.905ZM519.98 132.52L505.134 129.796C507.753 146.018 503.831 161.655 498.955 173.639C499.924 173.137 500.898 172.628 501.876 172.113L519.98 132.52ZM553.026 138.578L535.603 135.383L524.852 158.898C534.593 152.777 544.193 145.994 553.026 138.578ZM567.21 125.134L567.375 125.166C573.327 118.904 578.597 112.271 582.874 105.293L551.953 99.6221L542.373 120.58L567.21 125.134ZM574.43 50.4642L593.376 53.9372C593.097 52.4924 592.771 51.0352 592.392 49.5732C590.56 42.4796 587.434 36.186 583.322 31.0147L574.43 50.4642ZM538.021 43.7891L558.804 47.5992L571.151 20.5934C566.584 18.0484 561.51 16.4264 556.106 15.9169C554.383 15.7544 552.623 15.7027 550.831 15.7716L538.021 43.7891ZM508.564 38.384L522.396 40.9216L531.583 20.8272C529.846 21.6665 528.1 22.6166 526.346 23.6799C520.433 27.2636 514.463 32.1149 508.564 38.384ZM515.626 55.7241L497.247 52.3545C494.469 56.2976 491.727 60.5926 489.036 65.2569C489.652 67.701 490.103 70.0442 490.393 72.2914L506.686 75.2794L515.626 55.7241ZM552.035 62.4017L531.254 58.5916L522.312 78.1444L543.095 81.9571L552.035 62.4017ZM594.496 70.1869L567.663 65.2667L558.723 84.822L590.13 90.5816C592.582 84.0393 594.107 77.2362 594.496 70.1869ZM419.853 17.1117C416.775 16.3315 413.688 18.4089 413.126 21.6086C411.579 30.4325 407.595 43.8763 397.35 56.279C394.61 59.6018 389.765 60.0153 386.526 57.2045C383.288 54.3936 382.884 49.4255 385.624 46.1027C390.261 40.4884 393.264 34.6832 395.208 29.4898C397.165 24.2595 391.396 19.6051 386.891 22.7704C385.205 23.9567 383.601 25.2749 382.095 26.7221C376.043 32.5284 371.497 40.3777 369.122 49.5708C360.933 81.2703 376.508 108.781 400.122 131.132C423.062 152.844 453.464 169.76 478.013 181.24C485.514 168.798 501.195 136.212 479.347 109.495V126.68C479.347 129.833 478.083 132.715 476.041 134.822L475.993 134.871C473.94 136.953 471.141 138.243 468.075 138.243H452.682C449.595 138.243 446.786 136.943 444.747 134.851L444.718 134.819C442.679 132.727 441.412 129.845 441.412 126.677V115.151C430.826 114.582 420.756 111.894 414.39 108.21C410.703 106.081 409.398 101.288 411.473 97.5053C413.548 93.7223 418.218 92.3833 421.905 94.5123C427.665 97.845 438.217 100.011 448.82 99.4153C454.2 99.1126 459.466 98.0739 463.903 96.0753C456.316 86.5228 458.744 71.7548 473.549 67.1423C461.397 45.5095 448.141 31.5439 435.168 23.6799C429.965 20.5245 424.828 18.3719 419.853 17.1117ZM477.692 198.343C451.123 186.368 416.012 167.613 389.721 142.729C362.26 116.739 344.296 84.1807 354.272 45.5623C357.391 33.4919 363.476 23.0756 371.635 15.2485C380.431 6.80611 391.595 1.4207 404.025 0.244178C416.257 -0.915113 429.613 2.00157 442.987 10.1092C453.215 16.3093 463.491 25.5886 473.288 38.4663C477.081 43.453 484.421 43.4677 488.209 38.4786C496.684 27.3164 506.713 17.2717 518.527 10.1092C531.903 2.00157 545.259 -0.912651 557.49 0.244178C582.224 2.58737 600.983 21.3231 607.244 45.5623C617.22 84.1807 599.256 116.737 571.794 142.729C545.504 167.613 510.393 186.368 483.824 198.343C481.787 199.253 479.58 199.184 477.692 198.343Z" fill="#4E2D2A"/>
<path fill-rule="evenodd" clip-rule="evenodd" d="M424.175 57.0852C424.175 62.6922 428.603 67.2358 434.067 67.2358C439.532 67.2358 443.96 62.6922 443.96 57.0852C443.96 56.3911 443.893 55.7143 443.763 55.0571C442.847 59.6918 438.855 63.182 434.067 63.182C429.279 63.182 425.288 59.6918 424.371 55.0571C424.242 55.7118 424.175 56.3911 424.175 57.0852Z" fill="#C76034"/>
</svg>
