<svg width="32" height="23" viewBox="0 0 32 23" fill="none" xmlns="http://www.w3.org/2000/svg">
<path d="M13.0358 13.2197V14.1522H13.9202V13.0331C13.6326 13.1121 13.3362 13.1739 13.0358 13.2197ZM10.1574 4.95734C10.8839 4.92207 11.4806 5.49387 11.4438 6.18998C11.4124 6.78596 10.9067 7.27042 10.2848 7.30057C9.55825 7.33585 8.96148 6.76405 8.9983 6.06794C9.02977 5.47196 9.53538 4.9875 10.1574 4.95734ZM17.6368 11.9122L18.3716 10.4113L17.0997 10.1934C17.0225 10.4733 16.918 10.7316 16.7892 10.9695C17.1098 11.2787 17.391 11.5936 17.6368 11.9122ZM19.1198 13.1648L21.6921 13.6051L22.8779 11.1831L20.3056 10.7427L19.1198 13.1648ZM20.8543 15.316L19.0171 15.0014C19.3413 16.8763 18.8558 18.6836 18.2523 20.0687C18.3722 20.0107 18.4927 19.9518 18.6139 19.8924L20.8545 15.3163L20.8543 15.316ZM24.9449 16.0164L22.7885 15.6471L21.4578 18.365C22.6635 17.6575 23.8517 16.8735 24.9449 16.0164ZM26.7001 14.4628L26.7206 14.4665C27.4572 13.7428 28.1095 12.9762 28.6389 12.1697L24.8119 11.5142L23.6261 13.9363L26.7001 14.4626V14.4628ZM27.5938 5.83239L29.9387 6.23379C29.9042 6.0668 29.8639 5.89839 29.817 5.72941C29.5901 4.90955 29.2033 4.18215 28.6944 3.58446L27.5938 5.83239ZM23.0875 5.06089L25.6598 5.50126L27.1879 2.37999C26.6226 2.08584 25.9947 1.89837 25.3258 1.83948C25.1126 1.82071 24.8947 1.81473 24.6729 1.8227L23.0875 5.06089ZM19.4413 4.43647L21.1535 4.72976L22.2906 2.4073C22.0757 2.5043 21.8595 2.61411 21.6425 2.73701C20.9107 3.1512 20.1717 3.71191 19.4416 4.43647H19.4413ZM20.3157 6.44032L18.0409 6.05087C17.6971 6.5066 17.3577 7.00301 17.0246 7.54209C17.1009 7.82458 17.1564 8.0954 17.1923 8.35513L19.2089 8.70048L20.3154 6.44032H20.3157ZM24.822 7.2121L22.2497 6.77173L21.1431 9.0319L23.7154 9.47227L24.822 7.2121ZM30.0773 8.1119L26.7563 7.54323L25.6497 9.8034L29.537 10.4691C29.8404 9.71293 30.0292 8.92664 30.0773 8.1119ZM8.46181 1.97774C8.08089 1.88756 7.69878 2.12766 7.62931 2.49748C7.43781 3.51732 6.94467 5.07113 5.67662 6.50461C5.33757 6.88865 4.73784 6.93644 4.33703 6.61157C3.93622 6.2867 3.88634 5.71206 4.2254 5.32802C4.7993 4.67912 5.17101 4.00861 5.4115 3.40837C5.65376 2.80386 4.93973 2.26591 4.38216 2.63175C4.17344 2.76887 3.97511 2.92135 3.78866 3.08862C3.03959 3.7597 2.47697 4.66689 2.18305 5.72941C1.16944 9.39318 3.09719 12.5725 6.01984 15.1558C8.85905 17.6652 12.6219 19.6204 15.6604 20.9472C16.5887 19.5092 18.5296 15.743 15.8254 12.655V14.6412C15.8254 15.0056 15.669 15.3387 15.4163 15.5823L15.4104 15.5879C15.1562 15.8286 14.8097 15.9777 14.4303 15.9777H12.5251C12.143 15.9777 11.7954 15.8275 11.543 15.5857L11.5394 15.582C11.2871 15.3402 11.1303 15.007 11.1303 14.6409V13.3087C9.82011 13.243 8.57374 12.9324 7.78578 12.5065C7.32945 12.2604 7.16793 11.7065 7.42475 11.2693C7.68156 10.8321 8.25962 10.6773 8.71595 10.9234C9.4288 11.3086 10.7348 11.5589 12.0471 11.4901C12.7131 11.4551 13.3648 11.335 13.914 11.104C12.9749 9.99997 13.2754 8.29311 15.1078 7.76C13.6038 5.25974 11.9631 3.64562 10.3575 2.73672C9.71352 2.37202 9.07727 2.12311 8.46151 1.97745L8.46181 1.97774ZM15.6206 22.924C12.3321 21.54 7.98648 19.3723 4.73249 16.4963C1.33363 13.4925 -0.889828 9.72943 0.344963 5.266C0.730928 3.87093 1.48415 2.66702 2.4939 1.76239C3.58262 0.786636 4.96437 0.164201 6.50289 0.0282215C8.01676 -0.105767 9.66988 0.231338 11.3251 1.1684C12.591 1.885 13.8629 2.95747 15.0755 4.44585C15.5449 5.0222 16.4534 5.02391 16.9222 4.44728C17.9711 3.15718 19.2124 1.99623 20.6746 1.1684C22.3301 0.231338 23.9832 -0.105482 25.4971 0.0282215C28.5584 0.299043 30.8801 2.46448 31.655 5.266C32.8898 9.72943 30.6664 13.4922 27.2675 16.4963C24.0135 19.3723 19.6679 21.54 16.3794 22.924C16.1274 23.0293 15.8539 23.0213 15.6203 22.924H15.6206Z" fill="#4E2D2A"/>
</svg>
